<svg width="100" height="100" version="1.1" viewBox="0 0 100 100" xmlns="http://www.w3.org/2000/svg">
	<defs>
		<mask id="a">
			<path id="b" d="m-1-1h102v102h-102z" style="fill:#fff"/>
			<g>
				<path d="m37 35.6a5 5 0 0 0-6.02 3.72s-0.632 3.27-5.43 9.44c-4.49 5.77-10.2 8.6-10.2 8.6a5 5 0 0 0-2.3 6.7 5 5 0 0 0 6.7 2.3s7.64-3.66 13.7-11.4c5.74-7.37 7.27-13.3 7.27-13.3a5 5 0 0 0-3.72-6z" style="stroke-dasharray:0.72, 4;stroke-dashoffset:4;stroke-width:8;stroke:#000"/>
				<path d="m57.9 51.1a8 8 0 0 0-5.74 2.12 8 8 0 0 0-0.438 11.3l14.2 15.4a8 8 0 0 0 11.3 0.439 8 8 0 0 0 0.439-11.3l-14.2-15.4a8 8 0 0 0-5.56-2.56z" style="stroke-dasharray:0.7, 4;stroke-width:10;stroke:#000"/>
				<path d="m55.6 11.8a5 5 0 0 0-6.41 3 5 5 0 0 0 3 6.4s5.08 1.86 10.4 6.12c4.57 3.7 9 12 9 12a5 5 0 0 0 6.7 2.24 5 5 0 0 0 2.24-6.7s-4.37-9.4-11.7-15.3c-6.65-5.36-13.2-7.74-13.2-7.74z" style="stroke-dasharray:0.72, 4;stroke-dashoffset:3.2;stroke-width:8;stroke:#000"/>
			</g>
		</mask>
	</defs>
	<path d="m100 50a50 50 0 0 1-50 50 50 50 0 0 1-50-50 50 50 0 0 1 50-50 50 50 0 0 1 50 50z" mask="url(#a)"/>
</svg>
