<svg width="100" height="100" version="1.1" viewBox="0 0 100 100" xmlns="http://www.w3.org/2000/svg">
	<path d="m79.2 77.5c0.517 0.385-0.212 2.05-0.702 1.79-0.662-0.358 0.184-2.17 0.702-1.79zm6.08-7.2c-0.683-0.55-1.81 1.78-1.17 2.22s1.85-1.67 1.17-2.22zm-35.2-70.3c-27.6 0-50 22.4-50 50s22.4 50 50 50 50-22.4 50-50-22.4-50-50-50zm2.8 2.8c2.4 2.2 5.2 6.3 6.2 9.9h1.6l1.8-0.91c2.4-1.2 3.2-1.4 5-1.4 2 0 3.2 0.26 5 1.1 3.4 1.6 5.9 5 6.7 9.2 0.34 1.8 0.33 5.3-0.025 7.3-0.62 3.6-2.4 7.7-4.5 11-2.1 3-4.5 4.7-7.1 5.3-2.1 0.44-3.3 0.22-6.6-1.1-1.6-0.67-3-0.57-5 0.34-2.1 0.99-3.6 1.2-5.5 0.86-1.2-0.23-2.9-1.1-4-2-1.9-1.5-4.3-5-5.7-8.1-1.8-4.1-2.4-7.7-2.1-11 0.53-5.6 3.3-9.7 7.9-12 1.1-0.46 1.4-0.51 3.4-0.51l2.2-0.0059 4.4 2.2h1.5c-2-3.2-4-6.4-6.2-8 0.00767 0.00133 1.02-2.17 1.02-2.17zm-26.7 30.8c2.14-0.243 4.53-0.0605 6.2 0.72 2.6 1.3 3.8 2.9 6.2 8.1 2.9 6.4 4.7 8.8 9.9 14 3.5 3.3 5.3 5.5 6.5 7.7 1 2 1.9 4.9 2.1 7 0.44 5.6-2.2 12-6.5 15-1.7 1.3-3.3 1.9-5.8 2-2.6 0.14-3.9 0.51-6 1.8-1.8 1-3 1.4-4.5 1.5-2.7 0.15-7-1.4-9.9-3.5-3.4-2.6-5.5-5.6-6.4-9.6-0.95-4-0.85-6.2 0.6-13 1.7-7.8 1.9-11 0.99-17-0.97-6.3-0.81-8.2 0.9-11 1.4-1.87 2.79-2.81 4.69-3.73-1.7-4.21-4.15-8.07-6.21-12.1l1.49-0.531c1.77 4.28 3.99 8.32 5.74 12.6zm51.8 10.2c-0.046 1.1 0.66 7.6 0.95 8.7l0.25 0.97 0.55-1.7c0.66-2 1.1-2.6 3.4-4.4 0.84-0.68 1.7-1.3 1.8-1.5 0.25-0.22 0.3-0.11 0.39 0.82 0.073 0.79-0.025 1.5-0.37 2.8-0.5 2.05-1.64 3.17-3.08 4.51 2.4-0.236 6.39-1.47 6.9-3.8l0.13-0.75 0.26 0.67c0.67 1.7 0.21 4.3-0.96 5.5-0.34 0.36-1.1 0.79-1.6 0.98-0.63 0.22-0.91 0.4-0.77 0.5 0.12 0.087 0.83 0.54 1.6 1 2.4 1.5 3.5 2.8 4 4.8 0.78 2.8-0.4 6.8-3 10-2.6 3.3-6.3 6.1-11 8.2-2.4 1.1-4.1 1.7-5.7 1.7-1.3 0.0077-3.4-0.72-4.4-1.5-1.2-0.92-2.2-2.3-3.4-4.5-2.4-4.6-3.9-10-3.8-15 0.072-2 1-5.3 1.8-6.5 0.73-1.1 2.4-2.5 3.4-2.8 0.54-0.19 2.7-0.58 3.1-0.55 0.022 0.0012-0.35-0.8-0.82-1.8-0.47-0.98-0.83-1.9-0.79-2 0.11-0.34 1.5 0.52 3.6 2.2 1.54 1.13 2.99 2.48 4.84 2.81-2.62-2.28-2.3-5.87-1.16-7.94 0.77-1.3 2.8-3.2 3.2-3 0.699 0.518 0.655 0.819 0.68 1.58zm-9.69 14c0.426 0.311 2.09-1.48 1.18-1.92-0.917-0.441-1.6 1.61-1.18 1.92zm-3.37-1.1c-1.38 1.12-0.867 2.6 0.21 1.6s1.17-2.72-0.21-1.6zm9.44 1.87c-0.43-0.18-1.4 1.6-0.8 1.9 1 0.3 1.2-1.7 0.8-1.9zm-4.4 0.82c-1.11 0.723-0.933 2.79-0.025 2.1s1.14-2.82 0.025-2.1zm10.3 0.9c-0.96-0.24-1.6 2.2-0.94 2.4s1.4-2.2 0.94-2.4zm4.8 0.6c-0.89-0.019-0.74 1.9-0.26 1.9 0.48 0.0091 0.93-1.9 0.26-1.9zm-19.9 1.1c-0.654 1.02-0.138 2.04 0.46 1.4 1.38-1.48 0.722-3.24-0.46-1.4zm9.97 0.93c-0.182 1.01 1.33 0.53 1.3-0.78-0.0342-1.31-1.12-0.226-1.3 0.78zm-3.34 0.44c-0.88 0.68-0.86 3 0.16 2.2 0.77-0.765 0.818-2.63-0.16-2.2zm10.3-0.01c-0.73-0.13-1.3 1.9-0.46 1.9 0.5-0.02 1.4-1.8 0.46-1.9zm5.5 0.61c-0.23 0.08-0.42 0.48-0.4 1.4 0.023 0.91 0.79 1.1 1 0.17 0.24-0.91-0.24-1.7-0.62-1.5zm-20.3 1.13c-0.837 0.554-0.87 2.85 0.016 2.1s0.821-2.65-0.016-2.1zm10 0.44c-0.714 0.551-0.468 2.6 0.3 1.7 1.1-1.28 0.0683-1.98-0.3-1.7zm-14.1 1.24c-0.643 0.192-1.09 2.88-0.12 2.2s0.813-2.41 0.12-2.2zm19.5 2.11c0.0215 0.66 0.661 0.725 0.96 0.062 0.837-1.86-1.01-1.6-0.96-0.062zm-10.9-0.42c-0.745 1.07-0.0707 1.93 0.48 1.4 1.24-1.19 0.518-2.83-0.48-1.4zm-3.96 3.64c0.95 0.33 1.54-2.6 0.75-2.6-0.794 0.0013-1.56 2.24-0.75 2.6zm11.3-2.59c-0.547-0.0748-1.32 2.27-0.39 2s0.937-1.93 0.39-2zm-15.5 3.56c-0.0082 0.89 0.535 0.992 0.99 0.15 1.31-2.42-0.966-2.8-0.99-0.15zm10.1 0.23c-0.178 0.63 0.178 0.92 0.57 0.48 1.46-1.64-0.0333-2.38-0.57-0.48zm6.61 0.9c-0.0727 0.885 0.498 1.12 0.89 0.29 0.919-1.94-0.741-2.11-0.89-0.29zm-10.2-0.21c-0.62-0.22-1.7 2-0.8 2.3 0.89 0.3 1.4-2.1 0.8-2.3zm-3.7 1.3c-0.64-0.22-1.8 2.1-0.82 2.4 0.97 0.37 1.5-2.2 0.82-2.4zm9.75 0.319c-0.718 0.449-0.87 2.3 0.0059 1.8 1.16-1.08 0.712-2.25-0.0059-1.8zm-4.58 3.07c-0.428 1.21 0.546 2.03 0.94 0.502s-0.512-1.72-0.94-0.502z" style="stroke-width:6"/>
</svg>
