<?xml version="1.0" encoding="UTF-8"?>
<svg width="100" height="100" version="1.1" viewBox="0 0 100 100" xmlns="http://www.w3.org/2000/svg">
	<defs>
		<marker id="marker6" markerHeight="23.365234" markerWidth="9.671875" orient="auto" preserveAspectRatio="xMidYMid" refX="4.8359375" refY="11.682617" viewBox="0 0 9.671875 23.365234">
			<path d="m9.67 0s-8.06 1.71-9.67 10.6c9.49-2.56 9.67-10.6 9.67-10.6zm0 23.4s-0.178-8.06-9.67-10.6c1.61 8.91 9.67 10.6 9.67 10.6z"/>
		</marker>
		<mask id="mask-powermask-path-effect70" maskUnits="userSpaceOnUse">
			<path id="mask-powermask-path-effect70_box" d="m-1-1h102v102h-102z" fill="#fff"/>
			<g style="">
				<path d="m11.4 65.7s3.33-7.13 5.04-10.7c1.32-2.73 2.56-5.5 4.03-8.15 1.42-2.56 3.01-5.03 4.62-7.47 1.53-2.31 3.02-4.28 4.8-6.79 0.776-1.09 3.74-5.16 4.73-6.51" fill="none" marker-end="url(#marker6)" marker-mid="url(#marker6)" stroke="#000" stroke-width="1.29px"/>
				<path d="m33.5 27.6c1.45-11.6 11.7-14.4 11.7-14.4s0.34 10.4-11.7 14.4z"/>
				<rect x="48.2" y="76.2" width="12.2" height="3.05" rx="4.88" ry="3.05" d="m 53.115715,76.248482 h 2.440927 c 2.704545,0 4.881851,0.680408 4.881851,1.525578 0,0.845171 -2.177306,1.525579 -4.881851,1.525579 h -2.440927 c -2.704546,0 -4.881851,-0.680408 -4.881851,-1.525579 0,-0.84517 2.177305,-1.525578 4.881851,-1.525578 z"/>
				<rect transform="rotate(26.8)" x="78.8" y="37" width="12.2" height="3.05" rx="4.88" ry="3.05" d="m 83.65522,36.978676 h 2.440927 c 2.704545,0 4.881851,0.680408 4.881851,1.525578 0,0.845171 -2.177306,1.525579 -4.881851,1.525579 H 83.65522 c -2.704546,0 -4.881851,-0.680408 -4.881851,-1.525579 0,-0.84517 2.177305,-1.525578 4.881851,-1.525578 z"/>
				<rect transform="rotate(16.9)" x="62.8" y="53.8" width="12.2" height="3.05" rx="4.88" ry="3.05" d="m 67.632755,53.833046 h 2.440927 c 2.704545,0 4.881851,0.680408 4.881851,1.525579 0,0.84517 -2.177306,1.525578 -4.881851,1.525578 h -2.440927 c -2.704545,0 -4.881851,-0.680408 -4.881851,-1.525578 0,-0.845171 2.177306,-1.525579 4.881851,-1.525579 z"/>
				<rect transform="rotate(-68.8)" x="-60" y="62.8" width="12.2" height="3.05" rx="4.88" ry="3.05" d="m -55.098499,62.809902 h 2.440926 c 2.704546,0 4.881851,0.680408 4.881851,1.525579 0,0.84517 -2.177305,1.525578 -4.881851,1.525578 h -2.440926 c -2.704546,0 -4.881851,-0.680408 -4.881851,-1.525578 0,-0.845171 2.177305,-1.525579 4.881851,-1.525579 z"/>
				<rect transform="rotate(-40.1)" x="-24.4" y="86.8" width="12.2" height="3.05" rx="4.88" ry="3.05" d="m -19.564175,86.802284 h 2.440927 c 2.704545,0 4.881851,0.680408 4.881851,1.525579 0,0.84517 -2.177306,1.525578 -4.881851,1.525578 h -2.440927 c -2.704545,0 -4.881851,-0.680408 -4.881851,-1.525578 0,-0.845171 2.177306,-1.525579 4.881851,-1.525579 z"/>
				<rect transform="rotate(-40.1)" x="-8.73" y="100" width="12.2" height="3.05" rx="4.88" ry="3.05" d="m -3.8439522,100.49236 h 2.4409266 c 2.7045455,0 4.8818512,0.68041 4.8818512,1.52558 0,0.84517 -2.1773057,1.52558 -4.8818512,1.52558 h -2.4409266 c -2.7045455,0 -4.8818512,-0.68041 -4.8818512,-1.52558 0,-0.84517 2.1773057,-1.52558 4.8818512,-1.52558 z"/>
				<rect transform="rotate(-6.51)" x="35" y="86" width="12.2" height="3.05" rx="4.88" ry="3.05" d="m 39.911518,86.007622 h 2.440927 c 2.704545,0 4.881851,0.680408 4.881851,1.525578 0,0.845171 -2.177306,1.525579 -4.881851,1.525579 h -2.440927 c -2.704545,0 -4.881851,-0.680408 -4.881851,-1.525579 0,-0.84517 2.177306,-1.525578 4.881851,-1.525578 z"/>
				<rect transform="rotate(40.2)" x="96.3" y="27.8" width="12.2" height="3.05" rx="4.88" ry="3.05" d="m 101.17339,27.753956 h 2.44093 c 2.70455,0 4.88185,0.680408 4.88185,1.525578 0,0.845171 -2.1773,1.525579 -4.88185,1.525579 h -2.44093 c -2.704542,0 -4.881848,-0.680408 -4.881848,-1.525579 0,-0.84517 2.177306,-1.525578 4.881848,-1.525578 z"/>
				<rect transform="rotate(164)" x="-27" y="-98.7" width="12.2" height="3.05" rx="4.88" ry="3.05" d="m -22.083263,-98.70649 h 2.440926 c 2.704546,0 4.881851,0.680409 4.881851,1.525579 0,0.845171 -2.177305,1.525579 -4.881851,1.525579 h -2.440926 c -2.704546,0 -4.881852,-0.680408 -4.881852,-1.525579 0,-0.84517 2.177306,-1.525579 4.881852,-1.525579 z"/>
				<rect transform="rotate(164)" x="-36.6" y="-80.7" width="12.2" height="3.05" rx="4.88" ry="3.05" d="m -31.704662,-80.712509 h 2.440926 c 2.704546,0 4.881851,0.680408 4.881851,1.525578 0,0.845171 -2.177305,1.525579 -4.881851,1.525579 h -2.440926 c -2.704546,0 -4.881852,-0.680408 -4.881852,-1.525579 0,-0.84517 2.177306,-1.525578 4.881852,-1.525578 z"/>
				<path d="m65.5 49.3s-5.37-10.1 1.31-10.4c6.68-0.345 2.76 10.4 2.76 10.4z"/>
				<path d="m63.9 30.4s10.8-4.51 9.73 4.05c-0.806 6.64-10.7 0.566-10.7 0.566z"/>
				<path d="m61.6 52.3s10.3-4.14 10.2 2.55c-0.0381 6.69-10.5 2.16-10.5 2.16z"/>
				<path d="m56.5 31.3s10 4.94 4.96 9.3c-5.64 4.86-7.75-6.59-7.75-6.59z"/>
				<path d="m58.4 43.8s4.69 9.93-1.97 10.5c-7.93 0.661-2.32-10.2-2.32-10.2z"/>
				<path d="m71 27.3s0.732-11.7 7.03-7.86c5.69 3.51-2.99 10.3-2.99 10.3z"/>
				<path d="m82.4 32.2s-3.01-9.52 2.69-9.52c5.7 0 2.6 9.77 2.28 9.77s-4.97-0.244-4.97-0.244z"/>
				<path d="m81.1 47.4s1.87-10.5 6.27-7.81-2.2 9.69-2.2 9.69z"/>
				<path d="m74.8 40.3s0.488-10 5.29-7.41c6.44 3.49-0.244 9.28-0.244 9.28z"/>
				<path d="m75.5 53.1s-5.94-6.1-1.95-8.55c5.05-3.09 5.78 5.78 5.78 5.78z"/>
				<path d="m62.1 29.6s8.38-2.12 5.45-6.67-7.33 4.15-7.33 4.15z"/>
			</g>
		</mask>
	</defs>
	<path d="m100 50a50 50 0 0 1-50 50 50 50 0 0 1-50-50 50 50 0 0 1 50-50 50 50 0 0 1 50 50z" mask="url(#mask-powermask-path-effect70)" stroke-width="20"/>
</svg>
