<svg width="100" height="100" version="1.1" viewBox="0 0 100 100" xmlns="http://www.w3.org/2000/svg">
	<path d="m50 0c-27.6 0-50 22.4-50 50s22.4 50 50 50 50-22.4 50-50-22.4-50-50-50zm-19.3 18.9h0.0449s-0.0351 0.0352-0.0371 0.0371c0.046 0.204 3.46 15.5-1.07 33.1-4.5 17.7-8.44 25.9-16.1 23.3-7.66-2.6-7.49-9.6-0.795-27.8 6.64-18.1 17.8-28.4 18-28.6-3.09e-4 -0.0014-0.0078-0.0371-0.0078-0.0371zm27.5 1.21s0.0873 0.112 0.0898 0.115c-0.0021-0.0033-0.054-0.0887-0.0547-0.0898 0.198 0.141 19.2 13.8 24 31.7 6.11 22.8 4.85 30.4-6.67 33.4-11.5 3.08-17.3-3.19-22.5-25.6-3.85-16.7 3.57-35.8 4.8-38.8 0.0109 0.0338 0.0956 0.299 0.113 0.354-0.611 4.24-3.32 24.4-1.08 35.6 3.62 18 11.9 29.2 11.9 29.2s0.514 0.0948 1.51 0.104c0.981 0.0097 1.56-0.0271 1.56-0.0271s-7.57-16.7-11.1-31.7c-3-12.8-2.81-28.5-2.69-32.9 1.04 3.21 8.21 25.6 10.8 36.6 2.82 11.8 6.62 27.2 6.62 27.2l0.844-0.229s-3.71-21.6-5.7-28.5c-1.88-6.54-11.5-32.4-12.6-35.3 0.0184-0.635 0.0358-1.03 0.0371-1.06-0.0025 0.0161-0.062 0.427-0.121 0.834-0.0144-0.0386-0.102-0.274-0.111-0.299 0.0932-0.227 0.232-0.57 0.234-0.576-1.4e-5 3.12e-4 -0.0019 0.0403-2e-3 0.041 9.5e-5 -6.12e-4 0.0078-0.0566 0.0078-0.0566zm0.0898 0.115c0.251 0.393 10.3 16.1 14.7 30.8 4.44 14.7 6.19 32.9 6.19 32.9s0.512-0.194 1.36-0.693c0.859-0.506 1.24-0.85 1.24-0.85s1.59-13.9-4.25-31.3c-4.02-12-19-30.6-19.2-30.9zm-14.8 16.9c3 3.02e-4 5.44 2.44 5.44 5.44-3.02e-4 3-2.44 5.44-5.44 5.44-3-3.02e-4 -5.44-2.44-5.44-5.44 3.02e-4 -3 2.44-5.44 5.44-5.44zm44.9 2.85c1.13 0.0261 2.26 0.359 3.26 0.959 2.88 1.73 3.97 5.2 2.44 7.75-1.53 2.55-5.11 3.22-7.99 1.49-2.88-1.73-3.97-5.2-2.44-7.75 0.945-1.57 2.73-2.49 4.73-2.45zm-53 12.4s3.69 4.76 6.27 5.38c2.55 0.6 11.9 6.68 10.9 16.3-1.1 9.62-12 13.4-19.6 6.64-7.61-6.7-1.86-18.5-0.127-20.4 1.73-1.86 2.48-7.87 2.48-7.87z"/>
</svg>
