<svg width="100" height="100" version="1.1" viewBox="0 0 100 100" xmlns="http://www.w3.org/2000/svg">
	<path d="m50 0a50 50 0 0 0-50 50 50 50 0 0 0 50 50 50 50 0 0 0 28-8.67c-0.151 0.0866-0.31 0.163-0.48 0.223l-3.83 1.33c-1.47 0.511-3.07-0.262-3.58-1.73l-0.373-1.08c-0.511-1.47 0.262-3.07 1.73-3.58l3.83-1.33c0.322-0.112 0.649-0.161 0.971-0.156 1.15 0.0182 2.21 0.743 2.61 1.89l0.375 1.08c0.374 1.08 0.0542 2.22-0.721 2.96a50 50 0 0 0 2.26-1.69c-0.169-0.227-0.316-0.474-0.414-0.756l-0.373-1.08c-0.511-1.47 0.262-3.07 1.73-3.58l3.83-1.33c0.276-0.0958 0.557-0.147 0.834-0.156 0.501-0.0168 0.988 0.109 1.42 0.34a50 50 0 0 0 12.2-32.7 50 50 0 0 0-50-50zm-20.1 15.8c0.0511 0.00284 0.0903 0.0279 0.145 0.0781 0.129 0.12 0.551 0.184 0.736 0.113 0.0554-0.0213 0.144 0.0177 0.252 0.111 0.0917 0.0796 0.253 0.176 0.359 0.215 0.201 0.0729 0.423 0.383 0.33 0.461-0.299 0.251 0.386 0.504 0.797 0.295 0.18-0.0918 0.418-0.176 0.527-0.186 0.458-0.042 0.676-0.0994 0.738-0.193 0.216-0.327 0.9-0.58 1.27-0.471 0.138 0.0413 0.283 0.0342 0.395-0.0176 0.0974-0.0452 0.213-0.071 0.256-0.0566 0.0433 0.0143 0.141 1.87e-4 0.217-0.0332 0.0986-0.0435 0.229-0.028 0.459 0.0566 0.278 0.102 0.347 0.105 0.506 0.0176 0.101-0.0559 0.222-0.0893 0.268-0.0742 0.0454 0.015 0.128-0.00268 0.184-0.0371 0.0551-0.0344 0.119-0.0379 0.143-0.00976 0.0236 0.0282 0.117 0.0318 0.207 0.00781 0.0899-0.024 0.197-0.0251 0.238-0.00195 0.0415 0.0232 0.198 0.104 0.35 0.182 0.151 0.0774 0.365 0.241 0.475 0.363 0.208 0.232 0.326 0.256 0.555 0.113 0.301-0.188 1.19 0.69 1.07 1.06-0.043 0.13-0.0168 0.159 0.328 0.369 0.507 0.31 1.13 1.12 1.1 1.42-0.0166 0.135 0.0254 0.204 0.203 0.332 0.529 0.382 0.894 0.924 1.03 1.53 0.0429 0.191 0.126 0.508 0.184 0.703 0.0576 0.196 0.08 0.427 0.0508 0.516-0.0299 0.0904-0.0199 0.172 0.0215 0.186 0.123 0.0406 0.443 0.408 0.545 0.625 0.0529 0.113 0.136 0.26 0.186 0.328 0.0497 0.0679 0.123 0.234 0.162 0.371 0.0391 0.137 0.0762 0.263 0.082 0.279 0.0058 0.0164 0.0686 0.00448 0.141-0.0254 0.596-0.247 1.66 0.223 2.01 0.893 0.184 0.348 0.184 0.348 0.668 0.506 0.526 0.171 0.703 0.319 0.734 0.609 0.0093 0.0858 0.0695 0.205 0.133 0.264 0.638 0.591 1.12 1.76 0.943 2.29-0.0344 0.104-0.0147 0.154 0.0684 0.182 0.0675 0.0223 0.126 0.117 0.145 0.232 0.0171 0.108 0.0655 0.224 0.107 0.258 0.0823 0.0674 0.134 0.484 0.0801 0.646-0.0182 0.055-0.0192 0.197-0.00195 0.316 0.0172 0.119 0.00153 0.264-0.0352 0.32-0.0378 0.0583-0.0382 0.112 0 0.125 0.101 0.0334 0.0739 0.519-0.041 0.727-0.0956 0.173-0.0916 0.188 0.0918 0.311 0.427 0.285 0.823 0.923 0.736 1.19-0.0237 0.0715-0.0152 0.175 0.0195 0.23 0.0347 0.0555 0.049 0.145 0.0312 0.199-0.0178 0.0538-0.0127 0.161 0.0137 0.238 0.0558 0.164-0.0733 0.62-0.184 0.646-0.0449 0.0107-0.0801 0.0864-0.0859 0.186-0.0054 0.0916-0.0191 0.22-0.0312 0.287-0.0411 0.226-0.00397 0.505 0.084 0.623 0.112 0.15 0.172 0.545 0.129 0.861-0.0726 0.532-0.0942 0.606-0.211 0.717-0.0768 0.0729-0.106 0.137-0.0781 0.174 0.112 0.149 0.101 0.619-0.0156 0.693-0.0987 0.063-0.0996 0.0718-0.00977 0.0684 0.117-0.0044-0.0757 0.437-0.273 0.625-0.0761 0.0723-0.0953 0.133-0.0703 0.236 0.0252 0.104 0.00382 0.181-0.0898 0.309-0.138 0.188-0.225 0.459-0.207 0.65 0.0069 0.0749-0.0302 0.16-0.0918 0.211-0.0565 0.0469-0.117 0.128-0.135 0.18-0.0263 0.0794-0.0407 0.0764-0.0957-0.0117-0.0575-0.092-0.0677-0.0831-0.0781 0.0586-0.0066 0.0892-0.0558 0.203-0.109 0.254-0.0655 0.0622-0.0849 0.118-0.0586 0.17 0.114 0.228-0.336 0.482-0.512 0.289-0.0724-0.0791-0.0887-0.0605-0.146 0.156-0.0359 0.135-0.0953 0.254-0.133 0.266-0.0375 0.0117-0.0908 0.0863-0.117 0.166-0.0379 0.115-0.094 0.144-0.271 0.143-0.171-0.0013-0.246 0.0354-0.312 0.154-0.048 0.0857-0.117 0.14-0.152 0.119-0.0779-0.0452-0.137 0.106-0.0723 0.184 0.0781 0.0932 0.0163 0.167-0.156 0.186-0.126 0.0136-0.179-0.00724-0.229-0.0859-0.0532-0.0851-0.0703-0.0864-0.0957-0.00977-0.0783 0.237-0.939 0.175-0.924-0.0664 0.011-0.172-0.126-0.211-0.26-0.0742-0.135 0.139-0.592 0.323-0.707 0.285-0.0673-0.0223-0.0938 0.0172-0.115 0.176-0.0173 0.128-0.0513 0.198-0.0898 0.186-0.0352-0.0117-0.0662 0.0414-0.0723 0.123-0.0118 0.16-0.271 0.313-0.48 0.283-0.0672-0.0095-0.151 0.0304-0.184 0.0898-0.033 0.0594-0.0949 0.118-0.139 0.129-0.0437 0.0109-0.104 0.0913-0.133 0.18-0.0336 0.101-0.0864 0.153-0.143 0.139-0.049-0.0124-0.117-0.0225-0.152-0.0234-0.0351-9.8e-4 -0.117-0.0173-0.182-0.0352-0.0837-0.023-0.126 0.00451-0.146 0.0957-0.0343 0.155-0.35 0.2-0.523 0.0742-0.135-0.0979-0.563-0.0396-0.604 0.082-0.0397 0.12-0.884-0.249-0.939-0.41-0.0225-0.0658-0.138-0.154-0.271-0.207-0.128-0.0507-0.255-0.131-0.279-0.18-0.0243-0.0483-0.091-0.104-0.148-0.123-0.0574-0.019-0.0909-0.0745-0.0742-0.125 0.0227-0.0685-0.0435-0.066-0.262 0.0137-0.239 0.0872-0.293 0.0897-0.297 0.00781-0.0035-0.0754-0.0339-0.0951-0.121-0.0742-0.153 0.0367-0.405-0.165-0.363-0.291 0.0409-0.124-0.064-0.329-0.137-0.268-0.157 0.132-0.452-0.22-0.32-0.381 0.0672-0.0821-0.0662-0.277-0.209-0.305-0.282-0.0547-0.369-0.261-0.223-0.537 0.069-0.13 0.089-0.218 0.0527-0.23-0.0869-0.0288-0.184-0.25-0.152-0.346 0.0437-0.132 0.321-0.243 0.424-0.17 0.0873 0.0626 0.0874 0.0604 0.0117-0.0332-0.0979-0.121-0.0477-0.295 0.102-0.354 0.15-0.0586 0.157-0.0991 0.0547-0.355-0.0484-0.121-0.0728-0.272-0.0527-0.332 0.027-0.0814-0.0252-0.15-0.201-0.266-0.226-0.149-0.278-0.301-0.113-0.34 0.503-0.12-0.306-0.267-0.979-0.178-4.6 3.08-7.43 10.2-9.62 17.8l-0.436 1.32-4.46-1.47c-2.45-0.811-4.47-1.5-4.48-1.53 0.482-1.11 0.865-2.65 1.5-3.8 1.12-2.01 1.24-2.28 1.9-4.26 0.891-2.7 1.22-4.71 1-6.15-0.021-0.138-0.0221-0.301-0.00195-0.361 0.0201-0.0607-0.00867-0.235-0.0645-0.387-0.0558-0.152-0.0812-0.336-0.0566-0.41 0.0246-0.0742-2e-3 -0.246-0.0586-0.381-0.0566-0.135-0.117-0.339-0.135-0.453-0.1-0.649-0.837-2.18-1.24-2.59-0.13-0.131-0.256-0.302-0.279-0.381-0.0237-0.079-0.0603-0.136-0.082-0.125-0.0217 0.0109-0.194-0.115-0.383-0.281-0.603-0.53-1.7-1.15-1.96-1.11-0.064 0.011-0.174 0.0181-0.244 0.0176-0.121-9.8e-4 -0.126 0.00652-0.0527 0.109 0.0684 0.0965 0.0657 0.114-0.0332 0.152-0.143 0.0559-0.203 0.231-0.105 0.311 0.109 0.089-0.0288 0.225-0.176 0.174-0.12-0.0416-0.119-0.0446 0.0137-0.0898 0.126-0.0428 0.119-0.0502-0.0918-0.0996-0.259-0.0606-0.362 0.0132-0.244 0.178 0.0721 0.101 0.0553 0.116-0.219 0.184-0.223 0.0553-0.312 0.052-0.354-0.0137-0.0413-0.066-0.0734-0.0653-0.129 0.00195-0.0695 0.0843-0.0762 0.0811-0.119-0.0508-0.0367-0.113-0.065-0.131-0.143-0.0918-0.0771 0.0395-0.0822 0.0715-0.0195 0.16 0.0431 0.061 0.0614 0.141 0.0391 0.178-0.0246 0.0404 0.112 0.183 0.346 0.359 0.454 0.343 0.446 0.334 0.334 0.391-0.0654 0.0329-0.0704 0.0912-0.0215 0.227 0.078 0.216 0.047 0.339-0.119 0.463-0.11 0.0816-0.115 0.106-0.043 0.225 0.144 0.238-0.151 0.442-0.33 0.229-0.0602-0.0718-0.244 0.103-0.238 0.227 0.0053 0.113-0.339 0.317-0.465 0.275-0.0482-0.016-0.135 9.3e-4 -0.193 0.0371-0.0691 0.0432-0.149 0.0366-0.234-0.0176-0.0955-0.0606-0.164-0.0583-0.256 0.00976-0.0987 0.0735-0.159 0.0733-0.299-0.00391-0.125-0.0691-0.208-0.0783-0.283-0.0312-0.125 0.0784-0.282 0.0389-0.346-0.0879-0.0344-0.0684-0.0865-0.086-0.213-0.0723-0.143 0.0154-0.17-8.74e-4 -0.189-0.111-0.0124-0.0713-0.0781-0.157-0.146-0.191-0.0891-0.0442-0.115-0.11-0.0898-0.229 0.0375-0.18-0.00147-0.218-0.145-0.146-0.072 0.0362-0.102 0.0251-0.139-0.0469-0.0256-0.0509-0.106-0.112-0.18-0.137-0.0844-0.0279-0.121-0.0771-0.102-0.137 0.0244-0.0738-0.00914-0.0994-0.154-0.117-0.102-0.0125-0.178-0.0468-0.168-0.0762 0.0097-0.0293-0.0434-0.112-0.117-0.184-0.0753-0.0726-0.118-0.177-0.0977-0.238 0.0199-0.0608-0.0171-0.15-0.084-0.203-0.0729-0.0582-0.0979-0.123-0.0625-0.166 0.037-0.0452 0.0121-0.102-0.0703-0.154-0.158-0.1-0.118-0.268 0.0879-0.359 0.175-0.0775 0.0633-0.335-0.182-0.416-0.077-0.0255-0.124-0.0893-0.119-0.164 0.0069-0.107-0.0292-0.132-0.285-0.188-0.232-0.05-0.295-0.0847-0.299-0.166-0.0026-0.0566-0.0541-0.119-0.113-0.139-0.116-0.0385-0.188-0.283-0.104-0.354 0.0284-0.0238-0.00851-0.104-0.082-0.18-0.195-0.2-0.359-0.525-0.322-0.637 0.0178-0.0537-0.0149-0.183-0.0723-0.287-0.0592-0.107-0.0774-0.22-0.043-0.262 0.0333-0.0407 0.0365-0.0823 0.00781-0.0918-0.0593-0.0196 0.0304-0.246 0.131-0.33 0.0413-0.0346 0.0319-0.067-0.0254-0.0859-0.0507-0.0168-0.0945-0.0822-0.0957-0.145-0.0012-0.0623-0.0309-0.179-0.0664-0.262-0.0809-0.188-0.0631-0.478 0.0312-0.5 0.0444-0.0106 0.0562-0.153 0.0312-0.381-0.0221-0.201-0.013-0.387 0.0195-0.414 0.0325-0.0273 0.0339-0.108 0.00391-0.178-0.0446-0.103 0.00339-0.29 0.26-1.02 0.254-0.722 0.303-0.916 0.26-1.02-0.0359-0.0848-0.0238-0.165 0.0371-0.246 0.0496-0.0657 0.0922-0.146 0.0938-0.18 0.0016-0.0335 0.0485-0.0772 0.104-0.0957 0.284-0.0954 0.439-0.315 0.365-0.52-0.0383-0.106-0.0516-0.307-0.0293-0.449 0.0224-0.142 0.0282-0.292 0.0137-0.332-0.0411-0.113 0.215-0.816 0.324-0.889 0.172-0.114 0.386-0.469 0.346-0.572-0.0201-0.0515-0.00946-0.115 0.0234-0.143 0.0329-0.0276 0.0408-0.0942 0.0195-0.148-0.0428-0.109 0.135-0.373 0.273-0.406 0.0422-0.01 0.137-0.161 0.211-0.334 0.0738-0.173 0.16-0.307 0.191-0.297 0.0316 0.0105 0.0617-0.0407 0.0664-0.113 0.012-0.187 0.107-0.28 0.238-0.236 0.0665 0.022 0.177-0.0229 0.271-0.111 0.239-0.225 0.621-0.428 0.734-0.391 0.0652 0.0216 0.194-0.0667 0.367-0.25 0.147-0.155 0.308-0.289 0.359-0.301 0.051-0.0114 0.117-0.0954 0.146-0.186 0.0298-0.0902 0.105-0.183 0.166-0.207 0.0609-0.0239 0.125-0.0883 0.143-0.143 0.018-0.0543 0.117-0.137 0.221-0.186 0.104-0.0482 0.237-0.171 0.293-0.273 0.0987-0.179 0.537-0.448 0.758-0.465 0.209-0.0163 0.844-0.419 0.893-0.564 0.0265-0.0799 0.152-0.222 0.277-0.318 0.125-0.0961 0.276-0.281 0.336-0.41 0.103-0.223 0.135-0.242 0.6-0.348 0.27-0.0614 0.55-0.165 0.623-0.23 0.167-0.15 0.678-0.325 0.891-0.307 0.0885 0.0078 0.274-0.0176 0.412-0.0566 0.209-0.0594 0.298-0.0513 0.543 0.0566 0.268 0.118 0.313 0.12 0.535 0.0156 0.134-0.063 0.334-0.104 0.445-0.0918 0.155 0.0175 0.25-0.0233 0.398-0.17 0.136-0.135 0.266-0.196 0.436-0.205 0.454-0.0249 0.585-0.075 0.625-0.236 0.0276-0.11 0.142-0.202 0.42-0.342 0.21-0.105 0.389-0.215 0.398-0.244 0.0096-0.0291 0.15-0.0591 0.312-0.0664 0.184-0.0083 0.344-0.0625 0.426-0.143 0.23-0.225 0.772-0.349 1.21-0.279 0.378 0.0599 0.405 0.0543 0.512-0.111 0.0618-0.0957 0.161-0.173 0.221-0.172 0.0601 9.79e-4 0.184-0.00553 0.275-0.0137 0.0912-0.0082 0.22-0.00514 0.287 0.00586 0.0671 0.0109 0.207 0.0313 0.311 0.0469 0.104 0.0156 0.289-0.0248 0.412-0.0898 0.123-0.065 0.268-0.102 0.324-0.084 0.0559 0.0185 0.128 0.0118 0.158-0.0137 0.0304-0.0254 0.109-0.0111 0.176 0.0312 0.0846 0.0537 0.193 0.0488 0.359-0.0176 0.104-0.0415 0.168-0.0614 0.219-0.0586zm-6.35 16.1c-0.0855 4e-3 -0.0852 0.0173-0.00391 0.0801 0.0891 0.0687 0.0786 0.0832-0.125 0.186-0.121 0.0611-0.196 0.13-0.166 0.152 0.0668 0.0499-0.276 0.245-0.373 0.213-0.0398-0.0132-0.0692 0.026-0.0703 0.0898-0.0036 0.202-0.137 0.249-0.357 0.127-0.147-0.0811-0.198-0.0881-0.184-0.0293 0.0106 0.0445-0.0341 0.131-0.0996 0.193-0.153 0.146-0.156 0.137 0.533 1.29 1.27 2.12 1.89 4.09 1.92 6.15 0.0278 1.64 0.0129 1.5 0.133 1.33 0.059-0.0846 0.231-0.518 0.383-0.963 0.443-2.1 0.818-2.48 0.832-4.39-0.0167-0.094-0.0304-0.329-0.0293-0.523 0.0024-0.405-0.0515-0.66-0.146-0.691-0.0362-0.012-0.0425-0.109-0.0156-0.215 0.0324-0.127 0.00492-0.275-0.0801-0.439-0.0706-0.136-0.17-0.378-0.221-0.537-0.0503-0.159-0.166-0.41-0.258-0.557-0.0921-0.147-0.242-0.4-0.332-0.562-0.0921-0.166-0.223-0.315-0.299-0.34-0.0901-0.0298-0.15-0.115-0.178-0.252-0.0489-0.244-0.079-0.258-0.426-0.205-0.161 0.0246-0.279 0.0117-0.301-0.0312-0.0196-0.0389-0.0828-0.069-0.139-0.0664zm12.5 2.38c-0.241-0.00564-0.521 0.123-1.21 0.449-1.73 0.817-3.77 3.93-3.42 4.06 1.86-0.226 4.48-2.87 5.66-4-0.0148-0.148-0.0304-0.143-0.557-0.371-0.197-0.0857-0.328-0.137-0.473-0.141zm29.1 3.94c0.9-0.0181 1.76 0.566 2.08 1.5l0.293 0.842c0.4 1.15-0.164 2.39-1.26 2.77l-2.86 0.992c-1.1 0.381-2.31-0.239-2.71-1.39l-0.293-0.844c-0.4-1.15 0.164-2.38 1.26-2.77l2.86-0.992c0.206-0.0715 0.417-0.107 0.625-0.111zm-8.04 2.58c0.9-0.0181 1.76 0.566 2.08 1.5l0.293 0.842c0.4 1.15-0.164 2.39-1.26 2.77l-2.86 0.992c-1.1 0.381-2.31-0.239-2.71-1.39l-0.293-0.842c-0.4-1.15 0.164-2.39 1.26-2.77l2.86-0.992c0.206-0.0715 0.417-0.107 0.625-0.111zm13.5 1.71c0.9-0.0181 1.76 0.568 2.08 1.5l0.291 0.842c0.4 1.15-0.163 2.39-1.26 2.77l-2.86 0.99c-1.1 0.381-2.31-0.239-2.71-1.39l-0.293-0.842c-0.4-1.15 0.164-2.39 1.26-2.77l2.86-0.99c0.206-0.0715 0.415-0.109 0.623-0.113zm-7.87 2.4c0.9-0.0181 1.76 0.568 2.08 1.5l0.291 0.842c0.4 1.15-0.163 2.39-1.26 2.77l-2.86 0.99c-1.1 0.381-2.31-0.239-2.71-1.39l-0.293-0.842c-0.4-1.15 0.164-2.39 1.26-2.77l2.86-0.99c0.206-0.0715 0.415-0.109 0.623-0.113zm10.6 2.82c1.01-0.0202 1.97 0.634 2.33 1.68l0.326 0.941c0.447 1.29-0.184 2.67-1.41 3.1l-3.2 1.11c-1.23 0.427-2.58-0.268-3.03-1.56l-0.326-0.943c-0.447-1.29 0.182-2.67 1.41-3.1l3.2-1.11c0.231-0.08 0.467-0.12 0.699-0.125zm-17.9 0.0293c0.9-0.0181 1.76 0.568 2.08 1.5l0.291 0.842c0.4 1.15-0.163 2.39-1.26 2.77l-2.86 0.99c-1.1 0.381-2.31-0.239-2.71-1.39l-0.293-0.842c-0.4-1.15 0.164-2.39 1.26-2.77l2.86-0.99c0.206-0.0715 0.417-0.109 0.625-0.113zm9.08 2.66c1.01-0.0202 1.97 0.634 2.33 1.68l0.328 0.943c0.447 1.29-0.184 2.67-1.41 3.1l-3.2 1.11c-1.23 0.427-2.58-0.268-3.03-1.56l-0.328-0.943c-0.447-1.29 0.184-2.67 1.41-3.1l3.2-1.11c0.231-0.08 0.465-0.12 0.697-0.125zm-8.14 3.19c1.01-0.0202 1.97 0.634 2.33 1.68l0.328 0.943c0.447 1.29-0.184 2.67-1.41 3.1l-3.2 1.11c-1.23 0.427-2.58-0.268-3.03-1.56l-0.328-0.943c-0.447-1.29 0.184-2.67 1.41-3.1l3.2-1.11c0.231-0.08 0.465-0.12 0.697-0.125zm19.5 0.24c1.09-0.00269 2.15 0.761 2.56 1.96l0.373 1.08c0.511 1.47-0.146 3.03-1.47 3.49l-3.44 1.2c-1.32 0.46-2.8-0.356-3.31-1.83l-0.373-1.08c-0.511-1.47 0.144-3.03 1.47-3.49l3.44-1.2c0.248-0.0862 0.502-0.128 0.754-0.129zm-9.49 2.88c1.09-0.00269 2.14 0.761 2.56 1.96l0.373 1.08c0.511 1.47-0.144 3.03-1.47 3.49l-3.44 1.19c-1.32 0.46-2.8-0.354-3.31-1.83l-0.373-1.08c-0.511-1.47 0.146-3.03 1.47-3.49l3.44-1.19c0.248-0.0862 0.502-0.128 0.754-0.129zm-30.7 2.68s-1.33 1.96-1.4 3.01c-0.0456 0.684-0.0308 1.45-0.0156 1.93 0.17-0.0029 0.34-0.00716 0.51-0.00586 0.777-0.695 2.35-1.97 3.71-2.28 1.89-0.421 4.35-0.49 4.35-0.49s-3.84 1.78-5.06 3.03c4.68 0.779 8.91 3.33 11 7.87 3.69 10.2-4.82 19.5-16.7 19.1-11.9-0.438-18.8-15.6-9.93-22.7 2.19-1.98 4.99-3.33 7.96-4l-3.49-3.76s1.89 0.349 3.01 1.4c1.12 1.05 1.96 1.96 1.96 1.96s0.0689-1.61 0.84-2.8c0.771-1.19 3.22-2.24 3.22-2.24zm22 0.779c1.09-0.00269 2.15 0.759 2.56 1.96l0.373 1.08c0.511 1.47-0.146 3.03-1.47 3.49l-3.44 1.2c-1.32 0.46-2.8-0.356-3.31-1.83l-0.373-1.08c-0.511-1.47 0.144-3.03 1.47-3.49l3.44-1.2c0.248-0.0862 0.502-0.126 0.754-0.127zm22 0.191c1.15 0.0182 2.21 0.743 2.61 1.89l0.373 1.08c0.511 1.47-0.262 3.07-1.73 3.58l-3.83 1.33c-1.47 0.511-3.07-0.262-3.58-1.73l-0.375-1.08c-0.511-1.47 0.264-3.07 1.74-3.58l3.83-1.33c0.322-0.112 0.649-0.163 0.971-0.158zm-10.5 3.24c1.15 0.0182 2.21 0.743 2.61 1.89l0.373 1.08c0.511 1.47-0.264 3.07-1.74 3.58l-3.83 1.33c-1.47 0.511-3.07-0.264-3.58-1.74l-0.373-1.08c-0.511-1.47 0.262-3.07 1.73-3.58l3.83-1.33c0.322-0.112 0.649-0.161 0.971-0.156zm-9.75 3.8c1.15 0.0182 2.21 0.743 2.61 1.89l0.373 1.08c0.511 1.47-0.264 3.07-1.74 3.58l-3.83 1.33c-1.47 0.511-3.07-0.264-3.58-1.74l-0.373-1.08c-0.511-1.47 0.262-3.07 1.73-3.58l3.83-1.33c0.322-0.112 0.649-0.161 0.971-0.156zm22.4 0.219c1.15 0.0182 2.21 0.743 2.61 1.89l0.373 1.08c0.511 1.47-0.262 3.07-1.73 3.58l-3.83 1.33c-1.47 0.511-3.07-0.262-3.58-1.73l-0.373-1.08c-0.511-1.47 0.264-3.07 1.74-3.58l3.83-1.33c0.322-0.112 0.649-0.163 0.971-0.158zm-10.5 3.24c1.15 0.0182 2.21 0.743 2.61 1.89l0.375 1.08c0.511 1.47-0.264 3.07-1.74 3.58l-3.83 1.33c-1.47 0.511-3.07-0.264-3.58-1.74l-0.373-1.08c-0.511-1.47 0.262-3.07 1.73-3.58l3.83-1.33c0.322-0.112 0.649-0.161 0.971-0.156zm-9.89 3.8c1.2-0.0403 2.33 0.697 2.74 1.89l0.375 1.08c0.511 1.47-0.264 3.07-1.74 3.58l-3.83 1.33c-1.47 0.511-3.07-0.264-3.58-1.74l-0.373-1.08c-0.511-1.47 0.262-3.07 1.73-3.58l3.83-1.33c0.276-0.0958 0.557-0.147 0.834-0.156zm22.7 0.252c1.2-0.0403 2.33 0.695 2.75 1.89l0.373 1.08c0.511 1.47-0.262 3.07-1.73 3.58l-3.83 1.33c-1.47 0.511-3.07-0.262-3.58-1.73l-0.375-1.08c-0.511-1.47 0.264-3.07 1.74-3.58l3.83-1.33c0.276-0.0958 0.555-0.147 0.832-0.156zm-10.4 3.24c1.15 0.0182 2.21 0.743 2.61 1.89l0.373 1.08c0.511 1.47-0.264 3.07-1.74 3.58l-3.83 1.33c-1.47 0.511-3.07-0.262-3.58-1.73l-0.373-1.08c-0.511-1.47 0.262-3.07 1.73-3.58l3.83-1.33c0.322-0.112 0.649-0.163 0.971-0.158zm-9.75 3.8c1.15 0.0182 2.21 0.743 2.61 1.89l0.373 1.08c0.511 1.47-0.264 3.07-1.74 3.58l-3.83 1.33c-1.47 0.511-3.07-0.262-3.58-1.73l-0.373-1.08c-0.511-1.47 0.262-3.07 1.73-3.58l3.83-1.33c0.322-0.112 0.649-0.161 0.971-0.156zm2.31 7.33c1.15 0.0182 2.21 0.743 2.61 1.89l0.373 1.08c0.511 1.47-0.262 3.07-1.73 3.58l-3.83 1.33c-1.47 0.511-3.07-0.262-3.58-1.73l-0.373-1.08c-0.511-1.47 0.264-3.07 1.74-3.58l3.83-1.33c0.322-0.112 0.649-0.161 0.971-0.156z"/>
</svg>
